<svg xmlns="http://www.w3.org/2000/svg" version="1.1" viewBox="544.01 227.44 139.98 307.05">
  <path
    d="M0 0 C13.65 0.77 13.65 0.77 17.55 3.79 C19.42 6.14 19.34 7.55 19.36 10.53 C19.38 11.56 19.39 12.59 19.4 13.66 C19.41 15.36 19.41 15.36 19.41 17.1 C19.42 18.31 19.43 19.52 19.44 20.76 C19.47 24.11 19.49 27.47 19.5 30.82 C19.51 34.44 19.54 38.06 19.57 41.67 C19.62 48.76 19.65 55.85 19.68 62.95 C19.7 68.71 19.73 74.47 19.76 80.24 C20.02 130.2 20.01 180.15 19.74 230.11 C19.71 235.96 19.69 241.81 19.67 247.66 C19.64 254.79 19.6 261.92 19.55 269.04 C19.52 272.69 19.5 276.33 19.49 279.97 C19.48 283.91 19.44 287.85 19.41 291.8 C19.41 292.96 19.41 294.12 19.4 295.31 C19.39 296.36 19.38 297.42 19.36 298.5 C19.36 299.41 19.35 300.32 19.34 301.26 C18.88 304.03 18.23 304.93 15.96 306.56 C12.56 306.99 12.56 306.99 8.58 307 C6.62 307.03 6.62 307.03 4.62 307.05 C0.33 306.47 -1.07 305.66 -4.04 302.56 C-4.75 299.11 -4.75 299.11 -4.86 295.31 C-4.93 293.41 -4.93 293.41 -5 291.48 C-5.01 290.52 -5.03 289.55 -5.04 288.56 C-5.95 288.53 -6.86 288.51 -7.79 288.48 C-11.18 288.39 -14.57 288.29 -17.96 288.19 C-19.42 288.14 -20.88 288.1 -22.35 288.06 C-24.46 288 -26.57 287.94 -28.68 287.88 C-29.94 287.84 -31.21 287.8 -32.52 287.76 C-35.77 287.57 -38.83 287.1 -42.04 286.56 C-44.27 286.44 -46.5 286.36 -48.73 286.31 C-50.01 286.28 -51.29 286.25 -52.6 286.21 C-55.24 286.15 -57.89 286.09 -60.53 286.04 C-82.41 285.46 -82.41 285.46 -90.04 280.56 C-91.09 280.19 -92.15 279.82 -93.23 279.43 C-98.76 277.15 -102.84 272.68 -107.04 268.56 C-107.97 267.65 -108.9 266.74 -109.86 265.81 C-113.23 260.79 -115.02 255.23 -117.04 249.56 C-117.41 248.69 -117.77 247.81 -118.14 246.91 C-120.93 239.64 -120.41 231.88 -118.04 224.56 C-115.7 219.39 -112.89 214.46 -110.04 209.56 C-109.38 209.56 -108.72 209.56 -108.04 209.56 C-107.67 208.63 -107.67 208.63 -107.29 207.68 C-105.84 205.21 -104.66 204.61 -102.04 203.56 C-102.04 202.9 -102.04 202.24 -102.04 201.56 C-100.28 200.19 -100.28 200.19 -97.79 198.68 C-97 198.19 -96.22 197.7 -95.4 197.19 C-68.89 184.31 -36.82 185.04 -8.04 183.56 C-2.84 167.94 -5.97 147.21 -6.06 130.81 C-6.09 125.67 -6.1 120.52 -6.12 115.38 C-6.12 113.61 -6.13 111.84 -6.13 110.06 C-6.14 109.18 -6.14 108.29 -6.14 107.38 C-6.18 95.43 -6.22 83.49 -6.29 71.54 C-6.33 63.44 -6.36 55.33 -6.38 47.23 C-6.39 42.95 -6.4 38.67 -6.44 34.4 C-6.47 30.39 -6.48 26.38 -6.48 22.38 C-6.48 20.91 -6.49 19.44 -6.51 17.97 C-6.53 15.96 -6.52 13.96 -6.52 11.95 C-6.52 10.27 -6.52 10.27 -6.53 8.56 C-5.88 4.54 -4.13 1.13 0 0 Z M-89.6 224.87 C-93.47 229.4 -95.44 234.28 -95.04 240.25 C-94.11 245.61 -91.65 249.08 -87.67 252.75 C-70.98 264.27 -46.56 263.6 -26.92 263.68 C-26.24 263.69 -25.56 263.69 -24.86 263.7 C-17.9 263.68 -10.98 263.1 -4.04 262.56 C-4.02 257.97 -4 253.39 -3.99 248.8 C-3.98 247.25 -3.98 245.69 -3.97 244.14 C-2.7 226.6 -2.7 226.6 -7.04 210.56 C-30.49 204.36 -71.24 207.88 -89.6 224.87 Z "
    fill="#050608" transform="translate(664.04296875,227.44140625)" />
  <path
    d="M0 0 C2.36 4.28 2.28 8.53 2.24 13.3 C2.24 14.12 2.25 14.94 2.25 15.79 C2.25 18.52 2.24 21.24 2.23 23.96 C2.23 25.88 2.23 27.79 2.23 29.7 C2.23 33.72 2.22 37.75 2.21 41.77 C2.19 46.85 2.18 51.94 2.19 57.03 C2.19 60.99 2.18 64.95 2.17 68.92 C2.17 70.79 2.17 72.66 2.17 74.53 C2.16 80.69 2.1 86.84 2 93 C1.99 93.99 1.97 94.99 1.96 96.01 C1.91 99.05 1.83 102.1 1.74 105.14 C1.73 106.08 1.71 107.02 1.7 107.99 C1.47 114.49 1.47 114.49 -0.86 117.05 C-7.73 120.09 -15.75 119.63 -23 118 C-25.1 116.41 -25.9 115.54 -26.38 112.93 C-26.39 112.13 -26.39 111.33 -26.39 110.5 C-26.41 109.58 -26.42 108.66 -26.43 107.71 C-26.43 106.7 -26.42 105.7 -26.42 104.66 C-26.43 103.59 -26.44 102.53 -26.45 101.43 C-26.47 97.91 -26.47 94.38 -26.47 90.86 C-26.48 88.41 -26.48 85.96 -26.49 83.51 C-26.51 78.38 -26.51 73.24 -26.5 68.11 C-26.5 61.53 -26.53 54.94 -26.57 48.36 C-26.59 43.31 -26.59 38.25 -26.59 33.19 C-26.59 30.77 -26.6 28.34 -26.62 25.91 C-26.64 22.52 -26.63 19.13 -26.62 15.73 C-26.63 14.73 -26.64 13.73 -26.66 12.69 C-26.6 8.17 -26.49 5 -23.59 1.39 C-17.27 -4.46 -7.1 -4.79 0 0 Z "
    fill="#050608" transform="translate(617,279)" />
  <path
    d="M0 0 C3.5 1.75 3.5 1.75 6 4 C6.74 4.58 7.49 5.16 8.25 5.75 C11.23 9.58 12.16 13.55 11.85 18.31 C10.87 23.83 9.05 27.14 5 31 C0.53 33.81 -4.89 33.63 -10 33 C-15.39 31.27 -19.34 28.33 -23 24 C-24.75 18.75 -24.89 13.14 -22.75 8 C-20.95 5.94 -19.55 4.97 -17 4 C-17 3.34 -17 2.68 -17 2 C-11.38 -0.58 -6.09 -0.68 0 0 Z "
    fill="#050608" transform="translate(610,228)" />
</svg>